<svg xmlns="http://www.w3.org/2000/svg" width="39.047" height="38.427" viewBox="0 0 39.047 38.427">
  <g id="logo" transform="translate(-100.4 -380.5)">
    <g id="Group_2" data-name="Group 2" transform="translate(109.695 386.04)">
      <path id="Union_1" data-name="Union 1" d="M16.394,12.418a1.672,1.672,0,0,1-.887-.424,1.132,1.132,0,0,1-.4-.629s-.425-.242-.65,0-.05,1.052-.25.967l-.8-.338s.7-.919,0-.919a26.538,26.538,0,0,1-2.8,0,6.785,6.785,0,0,1-2-.387,18.748,18.748,0,0,1-2-.677A13.121,13.121,0,0,1,3.751,8.27,6.87,6.87,0,0,1,1.7,5.852,18.431,18.431,0,0,1,.55,3.192,14.9,14.9,0,0,1,0,.435a16.012,16.012,0,0,1,2.8,0A15.157,15.157,0,0,1,5.052.713,14.243,14.243,0,0,1,7.2,1.39a15.387,15.387,0,0,1,1.751.774A7.8,7.8,0,0,1,10.6,3.192a7.1,7.1,0,0,1,1.3,1.258,6.23,6.23,0,0,1,1.15,1.4,12,12,0,0,1,.679,1.564,7.314,7.314,0,0,1,.42,1.432c.088.49-.07.529-.07.529a16.956,16.956,0,0,0-1.029-1.494,4.075,4.075,0,0,0-.85-.822l-.738-.52s-.563-.35-1.113-.725a12.465,12.465,0,0,0-1.4-.774s-.578-.335-.929-.48S6.6,3.869,6.6,3.869L5.052,3.192s-.088-.012.45.375S7.2,4.739,7.2,4.739s.963.556,1.751,1.076,1.4,1,1.4,1L12.2,8.27a7.87,7.87,0,0,1,1.2,1.107c.408.515.188.667.439.964-.011-.142.188.023.561-.524.413-.6,1.1-1.838,1.1-1.838a11.61,11.61,0,0,1,1.451-2.128,15.119,15.119,0,0,1,2.4-2.418,19.132,19.132,0,0,1,2.751-1.983A6.268,6.268,0,0,1,23.66.629l2-.629s-.65.266-1.451.629-1.808.947-1.808.947l-1.344.89a10.176,10.176,0,0,0-1.7,1.4,19.673,19.673,0,0,0-2.4,2.611,15.758,15.758,0,0,0-1.089,1.5s-.38.8-.727,1.478l.365-.221.45-.29.85-.339a8.707,8.707,0,0,1,1.4-.338c.65-.085,1.2-.122,1.2-.122s.625.037,1.351.122a10.87,10.87,0,0,1,1.551.338c.75.169,1.45.339,1.45.339l1.4.532-.85.532-1.1.677s-.638.351-1.251.677-1.2.629-1.2.629a4.663,4.663,0,0,1-1.051.338,6.315,6.315,0,0,1-1.8.3A4.094,4.094,0,0,1,16.394,12.418Zm-1.288-1.73.85-.339,1.4-.338.9-.189.721-.149s1.047-.146,1.229-.194-.5,0-.5,0h-.559s-.239.028-.691.088-1.1.2-1.1.2l-1.4.34a5.191,5.191,0,0,1-.749.24.558.558,0,0,1-.426-.071,3.417,3.417,0,0,0-.11.41Z" transform="translate(0 0)" fill="#8dc641"/>
    </g>
    <g id="Group_1" data-name="Group 1" transform="translate(100.4 380.5)">
      <path id="Path_7" data-name="Path 7" d="M6.721-27.591v-3.972a12.69,12.69,0,0,0,4.213,2.54,12.485,12.485,0,0,0,4.28.93q8.058,0,8.058-7.049a5.568,5.568,0,0,0-1.772-4.15,21.1,21.1,0,0,0-5.751-3.542q-4.915-2.29-6.9-4.741a9.149,9.149,0,0,1-1.99-5.957,9.085,9.085,0,0,1,3.193-7.227,11.632,11.632,0,0,1,7.875-2.755,14.154,14.154,0,0,1,7.557,1.932v3.721a13.656,13.656,0,0,0-7.891-2.648,7.805,7.805,0,0,0-5.45,1.878,6.284,6.284,0,0,0-2.073,4.884,6.575,6.575,0,0,0,1.3,4.24q1.3,1.628,5.751,3.739,5.35,2.576,7.356,4.777a8.347,8.347,0,0,1,2.006,5.85,9.418,9.418,0,0,1-3.06,7.21q-3.06,2.844-8.443,2.844A13.3,13.3,0,0,1,6.721-27.591Z" transform="translate(-6.721 63.514)" fill="#8dc641"/>
      <path id="Path_6" data-name="Path 6" d="M26.876-42.307H23.63V-55.181q0-5.812-4.711-5.812a5.364,5.364,0,0,0-4.028,1.649A5.749,5.749,0,0,0,13.3-55.181v12.874H10.051V-63.025H13.3v3.031h.079a7.493,7.493,0,0,1,6.651-3.459,6.532,6.532,0,0,1,5.087,1.934,8.023,8.023,0,0,1,1.762,5.589Z" transform="translate(12.171 80.689)" fill="#8dc641"/>
    </g>
  </g>
</svg>
